HIERARCHY
ROOT Hips
{
  OFFSET 3.13124 94.3669 -3.18751
  CHANNELS  6 Xposition Yposition Zposition Zrotation Xrotation Yrotation
  JOINT LeftUpLeg
  {
    OFFSET 8.64259 1.95398 -2.38835
    CHANNELS 3 Zrotation Xrotation Yrotation
    JOINT LeftLeg
    {
      OFFSET 43.7702 0 0
      CHANNELS 3 Zrotation Xrotation Yrotation
      JOINT LeftFoot
      {
        OFFSET 40.6238 0 0
        CHANNELS 3 Zrotation Xrotation Yrotation
        JOINT LeftToeBase
        {
          OFFSET 12.7242 0 0
          CHANNELS 3 Zrotation Xrotation Yrotation
          End Site
          {
            OFFSET 0 0 0
          }
        }
      }
    }
  }
  JOINT RightUpLeg
  {
    OFFSET -8.2249 1.95398 -2.59336
    CHANNELS 3 Zrotation Xrotation Yrotation
    JOINT RightLeg
    {
      OFFSET 43.5653 0 0
      CHANNELS 3 Zrotation Xrotation Yrotation
      JOINT RightFoot
      {
        OFFSET 40.6238 0 0
        CHANNELS 3 Zrotation Xrotation Yrotation
        JOINT RightToeBase
        {
          OFFSET 12.7242 0 0
          CHANNELS 3 Zrotation Xrotation Yrotation
          End Site
          {
            OFFSET 0 0 0
          }
        }
      }
    }
  }
  JOINT Spine
  {
    OFFSET 0.165834 0.87714 6.61349
    CHANNELS 3 Zrotation Xrotation Yrotation
    JOINT Spine1
    {
      OFFSET 7.38962 1.71661e-005 0
      CHANNELS 3 Zrotation Xrotation Yrotation
      JOINT Spine2
      {
        OFFSET 11.9445 1.14441e-005 0
        CHANNELS 3 Zrotation Xrotation Yrotation
        JOINT Spine3
        {
          OFFSET 14.7254 4.19617e-005 0
          CHANNELS 3 Zrotation Xrotation Yrotation
          JOINT Spine4
          {
            OFFSET 10.9679 0 0
            CHANNELS 3 Zrotation Xrotation Yrotation
            JOINT RightShoulder
            {
              OFFSET 2.46616 -1.6653 3.69651
              CHANNELS 3 Zrotation Xrotation Yrotation
              JOINT RightArm
              {
                OFFSET 13.0012 0 0
                CHANNELS 3 Zrotation Xrotation Yrotation
                JOINT RightForeArm
                {
                  OFFSET 28.7848 1.52588e-005 0
                  CHANNELS 3 Zrotation Xrotation Yrotation
                  JOINT RightHand
                  {
                    OFFSET 26.5688 1.52588e-005 0
                    CHANNELS 3 Zrotation Xrotation Yrotation
                    End Site
                    {
                      OFFSET 0 0 0
                    }
                  }
                }
              }
            }
            JOINT LeftShoulder
            {
              OFFSET 2.38034 -1.29275 -3.75231
              CHANNELS 3 Zrotation Xrotation Yrotation
              JOINT LeftArm
              {
                OFFSET 16.3182 6.10352e-005 0
                CHANNELS 3 Zrotation Xrotation Yrotation
                JOINT LeftForeArm
                {
                  OFFSET 27.0901 0 0
                  CHANNELS 3 Zrotation Xrotation Yrotation
                  JOINT LeftHand
                  {
                    OFFSET 24.5451 1.52588e-005 0
                    CHANNELS 3 Zrotation Xrotation Yrotation
                    End Site
                    {
                      OFFSET 0 0 0
                    }
                  }
                }
              }
            }
            JOINT Neck
            {
              OFFSET 5.0226 -0.0266342 0
              CHANNELS 3 Zrotation Xrotation Yrotation
              JOINT Head
              {
                OFFSET 6.69363 2.86102e-005 0
                CHANNELS 3 Zrotation Xrotation Yrotation
                End Site
                {
                  OFFSET 0 0 0
                }
              }
            }
          }
        }
      }
    }
  }
}
MOTION
Frames:	18
Frame Time:	0.0333333
-71.0758 91.4229 -31.4221 -54.7203 -84.6414 -54.358 178.741 16.8864 78.0516 -20.9809 -18.1617 -3.47177 64.2481 4.5592 2.5094 28.7808 8.22314e-006 1.83695e-006 -178.258 30.8942 85.3251 -80.1664 11.0321 -0.416162 38.9147 4.9444 5.18201 28.7808 1.20825e-005 1.93947e-005 0.36526 6.13604 -88.0688 14.6232 0.93426 0.176127 2.95263 0.941108 0.134821 -19.5847 0.838129 0.448782 0.427949 0.838136 0.448777 97.2608 -43.4 -90.3083 41.1553 1.96153 19.5593 -126.269 -18.0555 -103.619 47.3297 -0.228079 -5.58934 -73.9929 -57.0659 102.5 -24.2077 -7.06776 -9.79263 82.8737 2.40393 -91.3761 -78.4476 16.1426 -25.0875 -14.512 26.2562 9.67124 -25.5395 20.9455 28.773 
-72.8964 92.4129 -29.3435 64.8858 -85.4009 66.2154 179.605 12.9241 79.1862 -20.112 -11.1747 -2.2754 64.0979 2.6061 1.36072 28.7808 8.22314e-006 1.83695e-006 -178.213 30.7713 85.1419 -75.7369 18.1028 0.133354 39.1761 7.84823 7.81246 28.7808 1.20825e-005 1.93947e-005 0.377196 6.3794 -88.1231 14.1392 1.00471 0.15968 2.46869 1.01076 0.115291 -20.0691 0.910263 0.45428 -0.0564102 0.910263 0.454269 97.8062 -42.3388 -89.4957 40.3064 0.0217061 20.022 -105.514 -9.93942 -94.7814 63.7537 1.74899 -2.23483 -76.6355 -52.4895 98.8701 -23.3715 -8.35773 -8.27135 69.6573 -2.50045 -92.9687 -98.4598 11.5559 -14.8436 -14.8739 24.8434 7.39738 -24.3974 19.9988 27.8015 
-74.5222 93.4447 -27.4347 78.3987 -76.5491 80.8114 179.976 10.1267 80.8227 -16.7975 -7.29918 -1.93109 63.3585 -0.026852 -0.145576 28.7808 8.22314e-006 1.83695e-006 -178.732 29.3713 85.1038 -68.0536 16.3881 0.193898 46.1317 -2.64784 -1.62237 28.7808 1.20825e-005 1.93947e-005 0.321288 6.45986 -88.6382 13.967 0.90239 0.257853 2.29634 0.912861 0.217873 -20.2406 0.783171 0.517151 -0.227956 0.783176 0.517142 98.5671 -41.6998 -88.2468 38.1503 0.38899 21.0586 -95.0096 -1.53048 -92.0485 71.1618 1.35312 -3.18609 -78.4043 -48.0079 96.1975 -22.7655 -9.68569 -6.02722 41.4434 -4.4192 -95.9312 -109.964 -3.09181 -2.19386 -14.2804 22.8676 4.90407 -23.0023 18.5301 26.2507 
-76.0979 94.7149 -25.5639 80.1318 -66.9394 83.7612 -179.544 8.8052 82.4663 -14.6884 -5.76767 -1.90541 60.6693 -1.90742 -1.34618 28.7808 8.22314e-006 1.83695e-006 -179.07 28.0936 84.7135 -59.3984 13.8182 0.21593 49.4197 0.366367 0.699117 28.7808 1.20825e-005 1.93947e-005 0.189035 6.50648 -89.1159 13.8676 0.607238 0.207408 2.19674 0.61576 0.180484 -20.3392 0.516813 0.380319 -0.326525 0.516829 0.380324 98.9823 -40.6368 -87.6128 35.5349 2.21865 21.9606 -78.5302 5.75994 -94.567 81.0318 1.81295 -2.9753 -79.4309 -45.7751 94.5249 -22.3733 -10.4468 -5.4966 10.7583 -2.40154 -99.2396 -114.858 -22.9661 11.0942 -14.4412 20.2616 3.82016 -20.4909 16.8152 23.6958 
-77.6423 95.9033 -23.6901 80.5231 -56.7989 85.594 -179.4 8.04818 84.0196 -12.4602 -6.27858 -1.9545 57.6996 -3.01673 -2.18245 28.7808 8.22314e-006 1.83695e-006 -179.85 24.4062 84.7456 -46.6996 15.2998 0.555885 53.2102 1.84798 1.61011 28.7808 1.20825e-005 1.93947e-005 0.0926515 6.57879 -89.8197 13.7166 0.249544 0.112619 2.04563 0.25425 0.101529 -20.4896 0.204155 0.182407 -0.476982 0.204156 0.182413 99.8028 -40.0107 -86.2105 33.24 4.12554 20.4551 -66.135 9.82728 -97.7407 95.852 1.99607 -3.19693 -80.0576 -45.073 93.4915 -22.5399 -9.86465 -4.37836 -28.1943 3.5287 -100.572 -93.5133 -43.5592 38.3421 -13.6294 17.3196 2.61594 -18.4895 14.5995 20.653 
-79.1238 96.7319 -21.6607 80.4359 -46.1072 87.127 -179.356 8.19411 85.3659 -11.3209 -8.9987 -2.34855 55.7444 -3.2692 -2.46368 28.7808 8.22314e-006 1.83695e-006 179.321 21.2205 84.403 -35.4575 14.7573 0.709049 52.7709 1.40692 1.32869 28.7808 1.20825e-005 1.93947e-005 0.00697267 6.64368 -90.5192 13.5872 -0.168046 -0.0883733 1.91625 -0.1718 -0.0808925 -20.619 -0.133707 -0.134782 -0.606295 -0.133735 -0.134798 100.212 -39.9407 -85.4894 30.4574 8.31942 18.7246 -65.924 10.1911 -97.9962 101.466 -13.7257 -16.241 -80.4844 -45.906 92.8533 -23.1615 -7.82709 -5.17805 -54.1969 7.62265 -98.2574 -71.2362 -47.111 60.4749 -12.1374 14.2051 2.0295 -17.0849 12.1695 16.4467 
-80.3678 97.1894 -19.4588 80.6555 -35.2033 88.9613 -179.26 8.14022 86.5943 -10.3636 -11.5532 -2.9086 54.7474 -2.99823 -2.33923 28.7808 8.22314e-006 1.83695e-006 178.242 16.6889 84.2487 -24.0117 17.7642 1.07446 52.8584 2.82562 2.32633 28.7808 1.20825e-005 1.93947e-005 -0.0285874 6.74319 -91.2587 13.3873 -0.537209 -0.290243 1.71639 -0.549445 -0.26633 -20.8191 -0.425147 -0.438275 -0.806464 -0.42512 -0.438277 101.448 -41.4793 -83.2633 28.9053 11.2969 18.0544 -39.1423 4.04092 -98.6041 103.645 -17.3612 -18.6322 -80.9111 -47.572 92.2779 -24.1153 -4.40558 -5.47416 -71.1799 11.0692 -96.0747 -54.4708 -40.68 69.8418 -10.0295 10.6271 0.6874 -16.0658 9.18056 12.3411 
-81.3639 97.3181 -17.0653 81.953 -23.8805 89.8432 -179.126 8.46097 86.3054 -12.3906 -12.4045 -3.4419 54.2684 -1.28722 -1.20963 28.7808 8.22314e-006 1.83695e-006 177.392 13.9375 82.4627 -20.1323 18.7144 1.12725 51.5774 3.45838 2.86361 28.7808 1.20825e-005 1.93947e-005 -0.215552 6.9452 -91.2068 12.9923 -0.876879 -0.326224 1.32157 -0.890386 -0.287321 -21.2151 -0.738275 -0.574681 -1.20241 -0.738277 -0.574689 102.592 -43.8242 -81.289 29.0829 11.1765 19.1797 -3.5351 -0.323198 -99.696 110.687 -2.57985 -6.80348 -81.6596 -49.8452 91.2801 -25.1403 -0.398262 -6.47947 -81.6347 12.4968 -93.9201 -47.4494 -33.3242 67.0615 -7.70473 6.7078 -0.852956 -15.7768 5.86122 7.8841 
-82.8676 97.3364 -14.6811 80.3199 -12.6168 89.3104 -178.769 14.0375 85.8772 -18.3287 -11.6653 -3.95075 52.8509 -1.15956 -1.21349 28.7808 8.22314e-006 1.83695e-006 177.441 15.4252 80.7853 -20.7011 18.8962 1.13062 50.4368 5.24144 4.25361 28.7808 1.20825e-005 1.93947e-005 -0.382564 6.81501 -90.7062 13.2499 -1.07677 -0.366215 1.57938 -1.09186 -0.318472 -20.9581 -0.916933 -0.672919 -0.945487 -0.91694 -0.672925 103.532 -46.981 -79.7879 30.3836 9.42072 20.515 25.8974 -3.80287 -98.7032 105.803 5.99805 -0.619257 -82.8377 -52.3491 89.72 -26.2816 4.14951 -7.4661 -85.4769 12.8637 -93.0241 -45.7524 -26.9103 57.2888 -6.07665 2.46333 -2.71871 -15.3093 2.27284 3.74907 
-84.0634 97.361 -11.8384 80.7489 -2.74608 89.7925 -177.472 17.8962 86.0989 -24.9162 -9.67693 -4.64284 50.7511 -0.777374 -1.08326 28.7808 8.22314e-006 1.83695e-006 177.767 13.1477 80.6488 -20.1336 23.2426 1.39401 51.3721 7.15527 5.53746 28.7808 1.20825e-005 1.93947e-005 -0.51797 6.88386 -89.9193 13.0972 -1.03396 -0.530612 1.42656 -1.0563 -0.484596 -21.11 -0.826698 -0.816831 -1.09736 -0.826715 -0.816845 104.166 -50.3717 -78.8885 33.3209 5.06462 19.535 45.6412 -4.63507 -96.2634 96.2574 0.954901 -4.20038 -84.0055 -54.7618 88.2549 -28.2957 10.6511 -6.23862 -86.6319 13.6652 -92.7721 -43.6597 -16.2795 37.1912 -5.22762 -1.66642 -4.88501 -14.941 -1.24339 0.305879 
-85.2014 97.3532 -8.79755 81.5471 5.13734 90.5107 -175.88 21.8805 87.2431 -31.7848 -8.31684 -5.98699 46.6657 -1.29366 -1.74352 28.7808 8.22314e-006 1.83695e-006 178.213 8.92392 81.8091 -17.9423 27.6713 1.66643 52.0405 9.16361 6.89645 28.7808 1.20825e-005 1.93947e-005 -0.495697 6.98244 -89.1929 12.8933 -0.759071 -0.653012 1.22245 -0.787052 -0.618977 -21.3124 -0.527728 -0.850948 -1.29973 -0.527729 -0.850941 104.244 -54.2944 -78.9065 33.3059 4.01851 14.2075 48.3514 -3.86487 -95.3419 87.0047 -3.34317 -8.76115 -85.3696 -55.977 86.4527 -28.8436 14.6239 -8.68115 -77.7867 13.0965 -94.9702 -37.7512 -9.29436 24.0835 -5.88139 -5.16998 -7.33678 -13.7922 -4.20261 -3.20628 
-86.1562 97.3699 -5.60741 82.3874 11.3076 90.6514 -173.977 26.7418 88.9592 -39.1941 -7.81245 -8.52619 37.4753 -0.643393 -1.81511 28.7808 8.22314e-006 1.83695e-006 178.805 3.90558 83.2381 -12.4812 33.4742 2.18139 52.245 11.445 8.52366 28.7808 1.20825e-005 1.93947e-005 -0.513628 7.07242 -88.2155 12.7104 -0.386368 -0.620045 1.03935 -0.413312 -0.602445 -21.4948 -0.182198 -0.707509 -1.48213 -0.18216 -0.707499 103.534 -57.7004 -80.0275 34.1203 0.512586 5.64326 39.9711 -2.00294 -94.0069 51.7315 -10.6538 -26.2417 -86.32 -56.7476 85.217 -29.1194 15.3228 -11.5719 -79.4401 9.95237 -94.0488 -35.482 -5.78934 14.6921 -8.07848 -7.64419 -10.2845 -12.1611 -6.39006 -6.46431 
-86.7972 97.1153 -2.3292 83.2147 16.477 89.9132 -172.147 31.1643 90.7189 -44.6707 -8.54895 -11.8291 24.8201 -0.622406 -2.70718 28.7808 8.22314e-006 1.83695e-006 179.789 0.883682 84.497 -10.02 39.3997 2.74085 54.3201 13.0372 9.30419 28.7808 1.20825e-005 1.93947e-005 -0.641873 7.09853 -87.0256 12.6455 -0.0716371 -0.39758 0.974471 -0.0890694 -0.394042 -21.5602 0.051152 -0.400731 -1.54756 0.051158 -0.400729 102.067 -59.8229 -82.1002 32.7832 1.04754 -6.55439 40.0256 3.83202 -88.6654 31.6885 -7.20915 -29.5001 -86.3353 -56.1634 85.1162 -28.7264 13.124 -15.745 -85.1487 5.00464 -92.6823 -35.2242 -5.37568 13.4396 -10.2586 -9.2057 -12.9772 -12.6773 -7.82565 -8.59393 
-87.207 96.6139 0.769683 83.6035 20.93 89.6629 -170.995 34.5163 92.9845 -47.4764 -11.7395 -15.2243 12.9767 -1.45246 -4.92283 28.7808 8.22314e-006 1.83695e-006 -178.806 0.606424 86.7016 -10.9731 46.3969 3.59964 58.5285 13.1424 8.61212 28.7808 1.20825e-005 1.93947e-005 -0.798019 7.00502 -86.2864 12.827 0.128233 -0.199065 1.15605 0.119321 -0.204519 -21.3791 0.18212 -0.15132 -1.36643 0.182124 -0.151326 100.131 -60.8736 -84.7453 30.5078 4.26177 -20.0844 40.8886 12.6991 -79.4806 18.2751 -4.33473 -30.5166 -85.9915 -54.6807 85.4032 -27.7227 10.1198 -20.3698 -94.383 1.04498 -91.5934 -25.495 -4.09858 15.0367 -12.4569 -9.97977 -14.8568 -14.2943 -8.60736 -9.61808 
-87.5972 96.1352 3.57797 83.0798 25.0242 90.4609 -170.381 37.5797 95.1914 -50.2522 -18.097 -18.6678 4.82108 -2.25501 -7.2604 28.7808 8.22314e-006 1.83695e-006 -177.117 1.77198 89.5224 -12.4778 54.6861 5.27206 62.2521 11.9102 7.2176 28.7808 1.20825e-005 1.93947e-005 -1.00785 6.82621 -85.794 13.1719 0.186781 -0.27767 1.50091 0.174325 -0.285619 -21.0342 0.261583 -0.208696 -1.02157 0.261588 -0.208699 97.8875 -60.1517 -87.8628 27.7258 8.64122 -33.5016 40.9965 25.5703 -68.6108 10.2195 -2.32364 -28.9757 -85.5213 -53.3481 85.9038 -26.9608 6.48244 -25.1271 -100.667 -5.20947 -93.3401 -18.3856 -2.9166 15.4938 -13.856 -10.5378 -14.7282 -16.1494 -9.00033 -11.5223 
-87.8208 95.7544 5.91852 82.8734 28.5166 91.1403 -169.968 39.7444 96.7454 -53.7452 -23.931 -21.865 0.584775 -1.85238 -7.20128 28.7808 8.22314e-006 1.83695e-006 -175.892 2.88142 91.8931 -14.0193 60.3417 6.61545 64.2689 11.3358 6.60483 28.7808 1.20825e-005 1.93947e-005 -1.1468 6.71445 -85.4319 13.3874 0.267816 -0.534893 1.71635 0.244004 -0.546157 -20.8184 0.416159 -0.429685 -0.805754 0.416178 -0.429675 95.469 -56.4613 -91.6015 23.7029 14.2631 -44.8893 43.7909 43.7598 -59.9087 9.6401 -2.00187 -26.8377 -84.8222 -53.531 86.9415 -26.3882 4.04537 -25.2734 -104.568 -6.27839 -93.6069 -13.9318 -1.79067 12.2811 -14.6556 -11.176 -13.4195 -17.2212 -9.38165 -13.7469 
-87.9807 95.2535 7.67042 82.5263 32.1802 91.2137 -169.907 41.3155 96.7236 -55.6453 -26.2397 -23.7702 -0.707751 -0.726848 -5.29413 28.7808 8.22314e-006 1.83695e-006 -175.388 3.34791 92.7018 -14.7658 62.5252 7.4855 67.2347 11.5654 6.25985 28.7808 1.20825e-005 1.93947e-005 -1.20175 6.64908 -85.3283 13.5182 0.336497 -0.582974 1.8472 0.310498 -0.597223 -20.6876 0.496129 -0.454903 -0.674957 0.496139 -0.4549 94.2478 -51.4115 -94.0713 17.2014 19.1207 -61.6485 1.54943 71.7486 -7.83257 16.7688 -3.29421 -26.0801 -84.2457 -53.5237 87.7775 -26.0888 3.32203 -25.3537 -104.745 -5.94766 -93.5335 -9.00943 -0.745166 6.84333 -14.7443 -12.0687 -12.472 -18.0851 -9.91245 -15.8786 
-88.169 94.7338 8.97855 81.5345 35.2559 91.5337 -170.199 42.9379 96.063 -56.3545 -26.2064 -24.4579 0.352486 0.338992 -3.19456 28.7808 8.22314e-006 1.83695e-006 -175.437 4.22596 93.0585 -14.9352 62.9093 7.52489 69.0473 10.7081 5.55852 28.7808 1.20825e-005 1.93947e-005 -1.15849 6.54199 -85.5065 13.7511 0.573198 -0.534976 2.08018 0.549118 -0.559703 -20.4555 0.707475 -0.337981 -0.442887 0.707504 -0.337974 93.206 -45.9577 -96.6288 10.8036 25.2679 -56.2173 10.4606 79.0785 -16.7818 10.6225 -1.1762 -16.7951 -83.7742 -53.543 88.4642 -25.8555 3.10091 -25.9263 -103.924 -5.63079 -93.3753 -3.29121 -0.128703 0.277247 -14.8676 -13.0643 -11.5326 -18.8157 -10.5315 -18.0578 
